<?xml version="1.0" standalone="no"?>
<!DOCTYPE svg PUBLIC "-//W3C//DTD SVG 20010904//EN"
 "http://www.w3.org/TR/2001/REC-SVG-20010904/DTD/svg10.dtd">
<svg version="1.0" xmlns="http://www.w3.org/2000/svg"
 width="811.000000pt" height="811.000000pt" viewBox="0 0 811.000000 811.000000"
 preserveAspectRatio="xMidYMid meet">
<metadata>
Created by potrace 1.14, written by Peter Selinger 2001-2017
</metadata>
<g transform="translate(0.000000,811.000000) scale(0.100000,-0.100000)"
fill="#000000" stroke="none">
<path d="M3805 7730 c-236 -23 -312 -34 -470 -65 -360 -72 -655 -177 -1003
-357 -330 -172 -575 -351 -838 -613 -400 -400 -689 -861 -877 -1400 -77 -223
-157 -557 -118 -496 7 11 27 14 74 12 38 -1 68 2 72 8 3 6 17 11 30 11 13 0
27 5 30 10 3 6 17 10 31 10 14 0 27 7 31 15 8 21 79 55 91 43 5 -5 14 15 22
49 57 258 246 678 436 970 296 455 683 832 1139 1108 115 70 378 200 455 225
14 5 57 21 95 35 72 28 97 36 251 79 99 28 255 62 331 71 26 4 76 11 109 16
34 5 147 13 251 19 640 33 1170 -76 1726 -356 311 -156 598 -364 858 -624 156
-156 273 -298 392 -478 95 -143 201 -332 184 -329 -6 1 -36 45 -67 97 -31 52
-63 106 -71 120 -98 166 -247 357 -419 533 -196 203 -381 353 -611 498 -148
93 -206 122 -206 103 0 -8 6 -13 13 -10 8 3 16 0 20 -6 4 -6 3 -9 -2 -6 -5 3
-18 2 -29 -2 -13 -4 -44 5 -95 30 -112 56 -203 94 -320 134 -58 21 -115 41
-126 46 -36 15 -213 58 -324 79 -244 46 -290 53 -380 57 -52 2 -135 7 -185 10
-49 4 -146 8 -215 9 l-125 3 -86 -49 c-48 -28 -97 -51 -110 -53 -13 -1 -31 -6
-39 -9 -117 -52 -252 -69 -272 -34 -11 20 -30 13 -21 -8 4 -11 -4 -17 -26 -21
-17 -4 -34 -11 -37 -15 -3 -5 -27 -9 -54 -9 -47 0 -225 -51 -245 -71 -14 -14
-43 -11 -53 7 -13 24 -43 14 -148 -50 -52 -32 -88 -60 -86 -68 2 -7 0 -10 -3
-6 -4 4 -22 -3 -39 -16 -17 -12 -56 -35 -86 -50 -71 -36 -148 -84 -183 -116
-35 -31 -59 -40 -73 -29 -17 13 -116 -56 -219 -152 -113 -104 -100 -94 -225
-187 -71 -53 -104 -84 -102 -95 2 -9 -2 -17 -7 -17 -25 0 -155 -152 -301 -350
-105 -143 -137 -196 -146 -245 -3 -16 -19 -44 -35 -61 l-29 -30 20 -19 c14
-12 18 -25 14 -39 -3 -12 5 -4 20 17 14 21 35 47 46 59 15 16 20 36 20 76 0
49 3 57 38 91 38 37 78 89 153 196 24 33 55 73 71 89 15 17 28 33 28 38 0 11
37 10 44 -1 3 -5 -9 -22 -27 -38 -18 -15 -33 -39 -34 -51 -1 -12 -13 -36 -27
-53 -14 -17 -26 -34 -27 -37 -3 -32 -11 -48 -34 -72 -27 -28 -55 -112 -55
-166 0 -24 -9 -38 -39 -62 -22 -18 -44 -32 -49 -32 -5 0 -35 -23 -67 -50 -31
-28 -71 -54 -87 -57 -34 -7 -48 -34 -48 -91 0 -21 -7 -47 -15 -59 -14 -21 -14
-24 6 -44 13 -13 29 -19 44 -17 22 5 23 4 8 -18 -10 -16 -13 -35 -9 -59 5 -27
3 -38 -13 -51 -16 -14 -17 -22 -9 -45 5 -16 14 -29 19 -29 5 0 9 -7 9 -15 0
-8 7 -15 15 -15 8 0 15 -5 15 -11 0 -8 4 -8 13 -2 6 5 18 8 25 7 6 -1 17 -2
22 -3 7 -1 7 -8 -1 -22 -7 -15 -8 -19 0 -15 7 5 9 1 5 -8 -4 -11 0 -16 11 -16
10 0 14 -5 9 -12 -4 -7 1 -6 12 3 10 9 24 14 31 12 6 -2 14 6 18 18 8 24 69
89 84 89 5 0 11 8 13 18 3 14 7 12 22 -10 18 -28 18 -28 -10 -62 -16 -19 -34
-35 -41 -35 -6 -1 -15 -11 -18 -23 -4 -13 -17 -34 -30 -48 -12 -14 -28 -43
-35 -65 -16 -49 -22 -153 -9 -161 5 -3 9 -14 9 -25 0 -11 5 -17 10 -14 6 3 10
0 10 -7 0 -7 9 -19 20 -25 16 -11 21 -10 29 5 5 9 12 14 15 11 8 -8 -24 -50
-34 -44 -7 4 -2 -26 16 -83 11 -36 66 -95 76 -80 5 9 8 5 9 -12 1 -14 1 -28 0
-32 0 -5 5 -7 12 -5 6 1 11 -5 9 -13 -3 -12 -1 -13 9 -2 20 19 26 15 34 -25 4
-20 20 -56 37 -79 18 -25 28 -49 25 -58 -4 -9 -2 -16 3 -16 6 0 10 -7 10 -16
0 -44 101 -84 214 -84 109 0 68 -20 -64 -31 -90 -8 -122 -15 -159 -35 -109
-61 -180 -111 -202 -144 -13 -19 -26 -37 -29 -40 -16 -16 -34 -71 -46 -140 -8
-45 -15 -60 -25 -55 -5 4 -9 -5 -9 -19 0 -27 -17 -72 -36 -96 -23 -28 -67
-223 -69 -302 -1 -43 1 -78 4 -78 7 0 13 -35 15 -82 1 -14 5 -24 10 -21 5 3 5
-12 2 -33 -11 -58 -11 -94 -2 -144 7 -44 7 -44 -9 -22 -9 12 -21 19 -27 16 -6
-4 -8 -2 -5 3 6 10 -12 78 -18 71 -1 -2 1 -27 5 -56 3 -29 3 -55 -2 -58 -4 -3
-8 -10 -8 -15 0 -6 4 -8 10 -4 5 3 19 -15 30 -40 15 -33 26 -45 36 -41 9 4 18
-3 24 -18 11 -29 60 -77 72 -70 4 3 8 0 8 -6 0 -6 5 -8 12 -4 7 5 8 3 4 -5 -5
-8 0 -14 13 -18 26 -7 26 -7 -3 -36 -17 -17 -29 -21 -39 -15 -20 11 -31 -6
-23 -35 7 -27 45 -71 69 -80 11 -4 14 -12 10 -23 -5 -13 -3 -15 8 -9 12 8 12
6 0 -8 -20 -25 -44 -21 -66 13 -24 36 -60 42 -49 8 17 -54 35 -88 59 -106 14
-11 25 -25 25 -31 0 -5 9 -15 20 -21 11 -6 19 -16 17 -23 -1 -7 4 -11 10 -10
7 2 12 -1 10 -6 -1 -5 20 -28 46 -51 26 -23 55 -56 64 -73 19 -37 38 -58 46
-50 3 3 9 -6 13 -21 3 -14 9 -26 14 -26 4 0 12 -10 18 -22 6 -13 11 -17 11
-10 1 6 6 12 12 12 7 0 9 -10 5 -25 -5 -21 0 -29 33 -52 22 -16 40 -34 41 -40
0 -7 6 -14 13 -14 6 -1 18 -2 25 -3 7 0 16 -5 20 -11 10 -14 80 -67 126 -95
29 -18 41 -21 44 -11 3 8 20 -3 48 -30 24 -24 56 -45 71 -47 33 -4 129 -67
149 -97 8 -13 26 -26 40 -29 16 -4 22 -11 18 -19 -5 -9 -4 -9 6 0 8 7 22 8 40
3 16 -5 31 -6 34 -3 3 3 13 0 22 -8 16 -13 16 -12 3 9 -8 12 -19 22 -24 22
-17 0 -95 53 -95 65 0 6 28 10 67 10 60 0 68 -2 72 -20 4 -22 21 -36 34 -28 4
3 6 12 3 20 -3 8 -1 11 4 8 6 -3 10 -14 10 -24 0 -10 9 -21 20 -24 14 -4 18
-10 14 -22 -6 -15 -4 -15 14 -4 26 16 40 5 22 -16 -7 -9 -10 -18 -6 -22 3 -3
6 -1 6 5 0 7 7 12 15 12 8 0 15 -5 15 -11 0 -5 -4 -8 -9 -4 -5 3 -13 0 -17 -6
-5 -9 -11 -7 -21 6 -12 18 -13 18 -13 -3 0 -13 6 -22 15 -22 8 0 15 -4 15 -10
0 -14 26 -12 39 3 6 8 21 13 33 11 13 -1 27 -3 33 -3 5 -1 -1 -8 -13 -17 -25
-17 -30 -54 -8 -54 8 0 18 5 21 10 4 6 10 8 14 6 4 -3 15 6 25 19 10 13 24 21
32 18 8 -3 14 0 14 7 0 10 3 10 15 0 9 -8 29 -10 49 -7 29 5 44 -1 90 -33 56
-40 106 -49 135 -27 10 9 18 5 33 -16 22 -30 72 -60 82 -50 3 4 6 0 6 -9 0
-18 81 -39 104 -26 12 7 16 5 16 -7 0 -9 4 -13 10 -10 5 3 10 2 10 -4 0 -6 6
-8 14 -5 8 3 22 -3 32 -14 11 -10 38 -29 62 -42 23 -13 42 -27 42 -32 0 -4 9
-8 19 -8 11 0 22 -4 25 -9 4 -5 -4 -7 -16 -4 -19 4 -20 3 -8 -6 22 -16 50 -13
50 4 0 8 -5 15 -12 15 -7 0 -8 3 -3 9 14 12 86 1 78 -12 -3 -6 -1 -7 5 -3 20
12 14 21 -25 39 -25 11 -41 13 -49 6 -8 -6 -29 -2 -65 15 -44 20 -48 24 -24
22 17 -2 38 -7 48 -11 23 -9 36 3 17 15 -8 6 -11 10 -7 10 5 0 22 -10 39 -21
24 -17 32 -19 41 -9 9 10 9 11 -2 5 -10 -5 -12 -4 -7 4 4 6 20 10 36 9 16 -1
26 -6 24 -10 -6 -9 8 -11 53 -9 17 1 35 -4 39 -10 5 -8 3 -9 -6 -4 -8 5 -11 4
-6 -3 4 -6 12 -9 19 -6 7 2 22 -5 32 -16 18 -20 18 -21 0 -14 -12 5 -16 4 -12
-3 4 -6 1 -13 -5 -16 -8 -3 -3 -9 12 -15 14 -6 19 -11 11 -11 -10 -1 -11 -4
-2 -15 17 -21 -11 -27 -44 -10 -15 8 -34 14 -42 14 -8 0 -11 5 -7 11 4 8 -1 9
-17 5 -13 -3 -18 -3 -11 0 17 8 15 24 -3 24 -8 0 -15 -4 -15 -10 0 -5 -8 -10
-17 -10 -10 -1 1 -8 25 -16 23 -8 58 -24 78 -36 32 -19 34 -22 20 -36 -13 -13
-21 -13 -69 0 -51 15 -54 15 -65 -3 -10 -16 -9 -19 7 -19 11 0 23 5 26 10 3 6
11 10 18 10 8 0 8 -3 -1 -12 -7 -7 -12 -15 -12 -19 0 -11 57 -22 106 -21 31 1
49 -5 68 -23 32 -30 33 -40 4 -24 -21 11 -22 11 -10 -4 8 -9 11 -20 8 -26 -3
-5 12 -12 34 -16 22 -4 40 -10 40 -13 0 -4 15 -7 33 -8 17 0 52 -4 77 -9 57
-11 336 -12 414 -2 59 7 90 22 80 38 -2 5 8 11 23 15 15 4 50 20 76 36 67 40
102 46 118 20 15 -24 42 -17 34 9 -6 18 -2 20 70 35 11 2 2 -4 -20 -14 -37
-17 -38 -20 -18 -26 23 -7 61 7 78 31 12 16 148 84 154 77 8 -8 -33 -33 -71
-44 -36 -10 -55 -26 -45 -37 3 -3 49 5 101 18 53 13 91 26 84 30 -7 5 -1 10
18 14 43 10 102 36 116 52 6 8 20 19 31 25 17 9 19 8 13 -7 -5 -15 -1 -16 36
-10 31 4 39 3 28 -4 -13 -9 -13 -11 2 -11 9 0 19 4 22 9 3 5 18 11 33 13 16 3
37 9 48 13 17 8 18 7 7 -7 -9 -11 -10 -18 -2 -23 5 -3 10 -1 10 4 0 6 5 11 11
11 6 0 9 -6 6 -13 -6 -16 54 12 84 39 11 9 19 14 19 10 0 -4 12 2 26 13 15 12
30 21 35 21 9 0 197 109 279 162 30 20 107 80 170 135 63 54 151 128 195 163
189 153 233 193 289 259 32 39 62 68 67 65 5 -3 9 -1 9 4 0 15 28 23 36 10 5
-7 2 -8 -6 -3 -9 6 -11 4 -6 -4 5 -8 -9 -33 -35 -64 -24 -29 -33 -43 -21 -33
41 36 209 269 296 411 93 152 116 185 116 168 0 -7 -4 -14 -9 -17 -5 -3 -27
-41 -48 -83 -22 -43 -74 -132 -117 -198 -322 -492 -792 -900 -1332 -1156 -458
-216 -822 -300 -1379 -315 -417 -12 -771 38 -1150 164 -329 109 -753 345
-1045 582 -137 112 -363 336 -479 475 -276 331 -488 731 -632 1187 -28 90 -36
107 -51 102 -9 -3 -38 6 -64 20 -27 14 -49 24 -50 23 -8 -8 81 -323 119 -422
58 -151 76 -195 133 -316 112 -242 252 -471 417 -684 374 -482 826 -819 1432
-1067 63 -25 116 -51 90 -42 -11 3 -40 12 -65 19 -157 43 -490 207 -689 339
-344 229 -672 556 -923 921 -260 379 -435 778 -566 1292 -30 118 -41 148 -48
133 -9 -19 -11 -18 -53 15 -32 25 -55 35 -82 36 -48 2 -51 2 -68 13 -11 7 -12
-1 -7 -45 55 -436 261 -1019 499 -1409 288 -471 703 -887 1157 -1161 491 -296
1090 -493 1605 -529 176 -13 526 -12 660 0 735 69 1464 370 2028 838 198 164
473 462 628 682 208 294 409 710 503 1040 87 305 133 614 143 944 l6 228 -21
-6 c-12 -3 -31 -9 -43 -12 -33 -9 -139 6 -139 21 0 7 11 14 25 15 61 5 113 4
144 -4 l34 -8 -7 163 c-19 443 -131 918 -317 1337 -356 805 -999 1432 -1839
1795 -353 152 -706 243 -1100 283 -181 18 -496 26 -615 14z m-141 -655 c-4 -8
-11 -12 -16 -9 -6 4 -5 10 3 15 19 12 19 11 13 -6z m-770 -193 l-29 -24 38 22
c23 13 37 17 37 10 0 -8 10 -10 33 -6 17 4 39 8 47 9 9 2 22 7 30 12 13 8 13
7 1 -8 -8 -10 -19 -16 -25 -14 -5 2 -23 -9 -39 -25 -17 -15 -36 -28 -44 -28
-8 0 -12 -4 -9 -9 3 -5 -13 -11 -35 -15 -22 -4 -50 -12 -62 -20 -12 -7 -32
-12 -44 -11 -13 1 -23 -2 -23 -8 0 -6 -3 -8 -6 -4 -3 3 -31 -5 -61 -19 -31
-13 -74 -24 -96 -24 -25 0 -56 -10 -83 -25 -36 -21 -47 -23 -71 -14 -15 6 -41
8 -58 5 -16 -3 -37 -1 -45 4 -12 7 -7 12 23 25 20 8 37 20 37 25 0 21 53 42
130 49 61 7 87 14 104 30 12 11 34 21 49 21 15 0 27 5 27 11 0 6 9 9 20 6 11
-3 20 -2 20 2 0 13 78 44 91 36 8 -5 10 -4 5 4 -10 16 35 32 53 18 11 -9 8
-16 -15 -35z m303 -246 c-9 -22 5 -27 20 -8 13 15 13 15 3 -5 -14 -30 -24 -35
-55 -23 -29 11 -25 26 9 40 29 12 29 12 23 -4z m-511 -10 c12 -32 -38 -82 -70
-70 -22 9 -20 34 6 61 24 26 56 30 64 9z m399 -10 c12 -12 11 -15 -8 -20 -12
-3 -25 0 -29 7 -6 9 -8 9 -8 0 0 -7 -6 -10 -14 -7 -17 6 -99 -64 -90 -77 3 -5
-1 -9 -9 -9 -8 0 -20 -7 -27 -16 -8 -8 -25 -14 -40 -12 -15 1 -34 -3 -42 -9
-9 -8 -19 -9 -28 -3 -23 15 -74 12 -96 -5 -21 -16 -54 -20 -54 -6 0 5 17 22
38 38 51 41 63 47 60 32 -2 -7 5 -15 15 -17 9 -2 17 1 17 7 0 6 -6 8 -13 5
-17 -6 -16 22 1 54 13 23 55 31 67 12 7 -12 58 -2 110 21 48 22 131 25 150 5z
m-598 -112 c-3 -3 -12 -4 -19 -1 -8 3 -5 6 6 6 11 1 17 -2 13 -5z m-42 -23
c-4 -15 0 -20 17 -23 31 -4 36 -41 8 -61 -11 -8 -20 -19 -18 -23 2 -5 -7 -20
-18 -32 -16 -17 -24 -20 -29 -11 -6 9 -11 9 -19 -3 -12 -16 -46 -33 -75 -37
-6 0 -18 -14 -28 -31 -9 -16 -24 -30 -33 -30 -10 0 -11 -3 -4 -8 16 -11 26
-79 15 -101 -9 -16 -51 -37 -51 -24 0 3 9 16 20 31 13 16 17 28 10 32 -6 4 -8
14 -4 23 4 12 1 17 -12 17 -18 -1 -74 -75 -74 -99 0 -6 -7 -11 -16 -11 -12 0
-15 -6 -11 -21 7 -28 -29 -65 -48 -49 -8 7 -15 7 -19 1 -4 -5 -2 -12 3 -16 16
-9 1 -34 -22 -37 -22 -3 -22 -24 0 -22 8 1 9 -5 3 -22 -12 -30 -5 -30 35 0 18
14 44 28 58 31 14 4 28 14 31 22 4 8 13 13 20 10 8 -3 16 0 19 7 6 14 77 38
77 26 0 -5 -11 -17 -25 -28 -22 -17 -23 -21 -8 -26 14 -6 10 -12 -22 -39 -24
-19 -48 -30 -61 -29 -13 2 -36 -6 -52 -18 -26 -19 -30 -20 -57 -6 -22 12 -32
12 -43 4 -10 -9 -15 -9 -21 1 -7 10 -13 10 -30 -1 -25 -15 -40 -60 -23 -66 22
-7 12 -38 -29 -96 -22 -31 -43 -72 -46 -92 -6 -36 -26 -55 -71 -69 -22 -6 -23
-4 -19 24 3 17 2 31 -1 31 -4 0 -17 3 -29 6 -16 5 -23 2 -23 -8 0 -13 -12 -21
-62 -46 -5 -2 -8 7 -7 20 1 13 -2 34 -5 47 -3 14 -1 30 5 37 5 7 12 25 15 40
3 15 17 39 32 53 15 15 43 47 62 70 19 24 47 58 61 75 46 56 59 80 59 109 0
21 -4 28 -14 24 -10 -4 -13 -1 -9 9 4 10 14 13 37 9 29 -5 40 3 146 100 175
162 180 166 189 161 5 -3 14 1 21 9 7 8 20 15 29 15 10 0 28 11 41 25 13 14
29 24 36 21 7 -3 15 -2 19 2 4 4 12 7 18 7 5 0 12 6 15 13 2 7 -2 10 -11 6
-30 -11 -26 15 7 50 37 40 50 45 41 17z m-12 -211 c18 0 19 -2 7 -10 -12 -7
-8 -10 14 -10 23 0 26 -3 17 -14 -8 -10 -9 -16 -1 -21 15 -9 4 -22 -27 -30
-15 -3 -39 -15 -54 -26 -15 -10 -33 -17 -41 -15 -7 2 -26 7 -43 11 l-30 7 46
41 c25 23 49 50 52 61 5 11 13 16 23 12 9 -3 25 -6 37 -6z m25 -197 c-12 -12
-28 -23 -36 -23 -12 0 -10 6 6 23 12 13 29 24 37 24 12 0 10 -6 -7 -24z m3454
-269 c-41 -33 -85 -98 -240 -354 l-123 -205 -1297 -5 -1297 -5 -3 -412 -2
-413 1317 1 c725 0 1339 4 1365 8 l47 8 -47 -52 c-27 -29 -96 -139 -160 -253
-62 -110 -119 -205 -126 -211 -9 -8 -370 -12 -1197 -13 l-1184 -3 -3 -487 -2
-488 342 0 c529 0 1048 12 1041 23 -4 6 3 7 18 3 47 -15 341 -24 786 -25 l452
-1 39 -57 c21 -32 78 -123 127 -203 49 -80 110 -177 137 -217 26 -40 48 -74
48 -77 0 -3 -287 -6 -637 -6 -387 0 -683 -5 -753 -12 -141 -13 -184 -13 -430
0 -107 6 -530 11 -940 12 l-745 0 0 1728 c0 950 1 1730 3 1735 1 4 788 7 1750
7 l1747 0 -33 -26z m-4285 -101 c-9 -9 -20 -13 -24 -9 -4 4 -1 11 7 16 25 16
35 11 17 -7z m-133 -178 c-4 -8 -11 -15 -16 -15 -6 0 -5 6 2 15 7 8 14 15 16
15 2 0 1 -7 -2 -15z m-14 -38 c0 -16 -44 -82 -67 -100 -15 -12 -23 -15 -17 -7
6 8 23 36 38 63 15 26 31 47 36 47 6 0 10 -1 10 -3z m289 -125 c-27 -19 -37
-7 -14 18 14 15 21 17 26 8 5 -7 0 -18 -12 -26z m-245 -253 c-8 -13 -24 -1
-24 18 0 13 3 13 15 3 8 -7 12 -16 9 -21z m4823 -277 c22 -7 36 -58 23 -82 -7
-13 -8 -20 -2 -16 6 3 13 2 16 -2 3 -5 33 -10 67 -11 71 -2 127 -27 153 -65 9
-14 12 -26 8 -26 -5 0 -12 -22 -15 -49 -15 -124 -59 -160 -175 -142 -36 6 -68
8 -71 5 -3 -2 15 -23 39 -45 l44 -42 -39 -32 c-21 -18 -45 -31 -52 -28 -15 6
-18 23 -4 23 5 0 8 8 7 18 -3 17 -8 19 -54 21 -20 1 -21 4 -12 22 14 26 6 49
-18 49 -10 0 -23 5 -29 11 -8 8 -17 8 -32 0 -23 -13 -29 -41 -9 -41 9 0 9 -3
0 -12 -7 -7 -12 -15 -12 -20 0 -11 50 -58 62 -58 11 0 29 -15 69 -57 12 -12
28 -19 35 -16 9 3 14 -2 14 -16 0 -12 6 -21 13 -22 96 -6 118 -6 123 2 3 5 10
9 16 9 7 0 6 -5 -2 -15 -13 -16 -6 -35 14 -35 6 0 17 -5 24 -12 10 -10 3 -15
-30 -25 -81 -24 -133 -8 -121 37 7 27 -21 27 -40 -1 -8 -11 -21 -20 -28 -19
-28 4 -40 0 -34 -12 3 -7 -2 -3 -11 10 -9 12 -23 22 -30 22 -8 0 -14 5 -14 11
0 5 6 7 13 3 6 -4 5 1 -4 10 -9 10 -22 19 -30 20 -8 2 -22 7 -33 11 -12 5 -21
3 -27 -6 -8 -12 -11 -11 -20 4 -5 9 -19 17 -31 17 -18 0 -19 2 -7 17 12 15 12
16 -5 10 -16 -6 -17 -5 -6 8 11 13 11 16 0 13 -9 -2 -14 6 -14 22 -1 26 -21
34 -43 17 -9 -7 -13 -4 -13 8 0 12 -5 15 -16 11 -9 -4 -23 -1 -30 5 -8 6 -20
9 -28 6 -10 -4 -16 5 -21 30 -4 25 -10 33 -21 29 -8 -3 -14 -1 -14 3 0 5 4 11
10 13 10 3 -19 71 -33 77 -5 2 -3 7 4 12 12 7 12 10 0 21 -12 11 -13 10 -6 -2
5 -9 4 -12 -1 -7 -11 11 -13 58 -2 51 4 -3 8 5 9 18 0 13 3 17 6 11 7 -18 31
-16 50 3 15 14 17 14 25 0 5 -9 13 -14 19 -11 15 10 10 45 -6 45 -22 0 -30 27
-13 44 7 7 21 23 31 35 10 12 22 19 27 16 5 -3 17 6 26 20 9 14 24 25 33 25 9
0 54 14 101 30 75 26 141 34 177 22z m-427 -112 c0 -5 -5 -10 -11 -10 -5 0 -7
5 -4 10 3 6 8 10 11 10 2 0 4 -4 4 -10z m-53 -76 c-3 -3 -12 -4 -19 -1 -8 3
-5 6 6 6 11 1 17 -2 13 -5z m-4052 -143 c3 -5 1 -12 -5 -16 -5 -3 -10 1 -10 9
0 18 6 21 15 7z m4420 -131 c3 -6 -1 -7 -9 -4 -18 7 -21 14 -7 14 6 0 13 -4
16 -10z m-449 -102 c4 -6 3 -8 -4 -4 -5 3 -12 1 -14 -6 -2 -6 -10 -8 -16 -4
-7 4 -10 12 -7 17 8 13 32 11 41 -3z m609 -48 c3 -5 1 -10 -4 -10 -6 0 -11 5
-11 10 0 6 2 10 4 10 3 0 8 -4 11 -10z m-271 -9 c3 -5 -1 -11 -9 -14 -9 -4
-12 -1 -8 9 6 16 10 17 17 5z m116 -25 c0 -11 -19 -15 -25 -6 -3 5 1 10 9 10
9 0 16 -2 16 -4z m-1785 -1086 c50 -26 106 -51 125 -56 34 -7 34 -8 10 -15
-34 -10 -439 -9 -470 1 -14 4 -20 8 -13 9 10 1 43 27 109 88 14 13 37 26 52
29 15 3 32 7 37 8 15 5 52 -11 150 -64z m-2822 -756 c-2 -6 3 -14 12 -18 10
-3 15 -12 11 -21 -3 -10 1 -15 11 -15 9 0 13 -3 10 -7 -4 -3 -1 -13 6 -22 11
-14 10 -14 -6 -2 -33 26 -86 107 -84 129 1 21 2 21 23 -5 12 -15 20 -33 17
-39z m3248 -73 c20 -21 21 -27 10 -75 -6 -28 -10 -62 -8 -76 2 -21 -2 -25 -23
-22 -18 2 -21 0 -12 -6 11 -7 10 -10 -3 -16 -10 -3 -13 -11 -9 -18 5 -8 0 -7
-11 2 -11 9 -16 10 -11 3 4 -7 3 -13 -2 -13 -14 0 -22 -38 -8 -44 6 -2 3 -5
-8 -5 -15 -1 -16 -4 -7 -15 7 -8 21 -12 33 -8 14 3 19 1 15 -6 -8 -11 -25 -11
-44 1 -7 4 -21 4 -30 -1 -10 -4 -29 -7 -43 -6 -14 1 -30 -2 -36 -7 -7 -6 -16
-8 -20 -7 -5 2 -10 0 -11 -4 -6 -17 -3 -28 8 -28 18 0 39 -28 33 -44 -3 -9 -1
-16 4 -16 17 0 26 41 11 51 -22 14 -2 10 37 -6 26 -11 34 -11 31 -2 -2 6 -9
13 -15 13 -7 1 -18 2 -24 3 -10 1 -9 4 1 10 20 13 57 -3 53 -23 -2 -11 2 -14
15 -10 15 5 16 4 3 -5 -8 -6 -24 -11 -36 -11 -11 0 -27 -6 -35 -12 -8 -7 -12
-12 -10 -11 2 2 10 -2 18 -8 7 -6 22 -9 32 -6 11 3 22 -1 24 -7 3 -8 -4 -11
-23 -8 -21 3 -28 -1 -33 -17 -6 -23 3 -27 20 -10 7 7 12 6 16 -4 4 -11 -3 -13
-28 -11 -20 1 -39 -4 -46 -12 -6 -7 -15 -11 -20 -8 -5 3 -9 -1 -9 -8 0 -10 -2
-10 -8 -1 -6 9 -17 10 -45 2 -20 -5 -36 -13 -36 -17 3 -17 -2 -32 -8 -31 -22
4 -35 -3 -30 -14 3 -9 -7 -19 -29 -27 -21 -9 -33 -19 -30 -27 3 -7 2 -12 -2
-12 -20 3 -32 -2 -32 -15 0 -21 50 -7 60 18 5 11 9 17 9 12 1 -5 7 -3 15 3 10
9 15 8 20 -4 4 -10 -1 -15 -17 -16 -17 -1 -18 -2 -4 -6 9 -2 17 -11 17 -19 0
-17 12 -18 29 -1 10 10 12 6 8 -20 -6 -37 -14 -53 -28 -53 -6 0 -7 5 -3 12 5
7 3 8 -5 4 -9 -6 -8 -13 5 -27 20 -22 39 -25 31 -5 -3 8 -3 17 1 21 4 4 8 11
8 16 1 5 2 13 3 18 0 5 8 11 16 15 13 4 13 2 5 -14 -5 -10 -10 -21 -10 -24 0
-12 28 -5 40 9 13 16 30 20 30 8 0 -9 -49 -33 -67 -33 -7 0 -13 -7 -13 -16 0
-9 5 -12 12 -8 7 4 8 3 4 -4 -4 -7 -14 -12 -22 -12 -9 0 -13 -5 -9 -12 4 -7 1
-6 -7 2 -7 9 -22 14 -33 13 l-20 -3 20 9 c17 8 14 10 -17 10 -20 1 -40 6 -43
12 -5 7 -13 5 -25 -6 -18 -16 -38 -5 -26 14 9 14 -26 23 -36 9 -8 -10 -11 -10
-15 0 -8 21 -21 13 -16 -9 5 -19 4 -20 -17 -9 -15 8 -20 8 -16 1 7 -11 -6 -15
-34 -11 -8 1 -25 13 -39 26 -25 25 -55 31 -66 14 -10 -16 -67 -8 -72 11 -9 33
-102 83 -95 52 3 -16 -14 -17 -24 -2 -3 6 0 15 7 21 10 6 5 8 -16 7 -87 -6
-96 8 -32 46 50 29 65 32 46 9 -11 -14 -10 -15 11 -12 14 2 24 9 22 16 -1 6 4
11 10 10 7 -2 12 5 12 15 -1 10 5 17 15 17 12 0 13 2 3 9 -11 6 -9 9 7 14 28
7 31 0 15 -31 -18 -34 -2 -44 50 -32 24 5 47 5 61 -2 29 -13 109 7 102 26 -4
9 0 12 12 9 11 -3 24 5 35 21 15 24 15 27 1 32 -10 4 -25 -4 -41 -21 -15 -16
-31 -24 -40 -21 -8 3 -13 2 -10 -3 3 -5 -1 -11 -9 -15 -20 -7 -26 6 -11 25 6
9 23 16 36 15 14 -1 31 7 39 17 8 11 21 17 32 14 11 -3 22 -1 25 4 3 5 -5 9
-17 9 -12 0 -19 3 -16 7 8 8 -12 35 -22 29 -6 -4 -7 30 -3 59 1 6 13 -3 26
-20 22 -27 27 -29 46 -17 12 7 25 11 28 8 3 -3 1 -6 -5 -6 -18 0 -2 -38 18
-43 10 -3 19 -1 19 4 0 5 -8 9 -17 10 -12 0 -8 4 10 11 15 5 27 15 27 21 0 7
5 5 10 -4 6 -10 19 -14 44 -11 39 4 44 13 22 31 -18 15 -14 42 9 55 13 8 19 8
22 -1 3 -7 9 -13 14 -13 6 0 7 5 4 10 -3 6 -2 10 3 10 5 0 12 9 15 21 7 27
-18 36 -42 15 -22 -20 -41 -21 -41 -1 0 8 5 15 10 15 6 0 10 5 10 11 0 8 -6 7
-17 -2 -13 -11 -17 -11 -20 -1 -3 6 -10 12 -17 12 -9 0 -12 14 -10 45 1 25 -1
45 -5 45 -3 0 -14 13 -23 28 -14 23 -15 31 -5 41 9 10 8 11 -5 6 -11 -4 -18
-2 -18 4 0 13 -36 15 -44 3 -3 -5 1 -29 9 -55 9 -30 10 -49 4 -53 -13 -8 -39
14 -39 33 0 9 -6 13 -14 10 -8 -3 -17 -1 -20 6 -4 7 -4 0 -2 -15 2 -16 2 -28
0 -28 -1 0 -19 16 -39 35 -22 22 -33 40 -29 48 5 8 2 7 -9 -2 -11 -9 -29 -11
-51 -7 -21 4 -36 2 -38 -4 -2 -6 -13 -12 -26 -13 -12 0 -22 -7 -22 -14 0 -14
-82 -33 -91 -20 -4 5 -16 -5 -28 -21 -22 -32 -27 -47 -12 -38 15 9 33 -22 26
-44 -3 -11 -3 -20 2 -20 19 -1 33 -18 27 -33 -3 -9 -9 -15 -14 -12 -4 2 -4
-13 0 -35 4 -24 3 -43 -4 -51 -8 -9 -8 -10 1 -5 10 6 13 -20 2 -26 -2 -2 -3
-1 -2 1 5 8 -27 31 -44 32 -10 0 -13 3 -5 6 6 2 12 11 12 19 0 8 -6 14 -12 14
-8 0 -9 3 -3 8 14 10 19 52 6 52 -6 0 -18 -12 -27 -27 -9 -16 -25 -40 -36 -55
l-18 -27 30 -16 c30 -16 38 -29 21 -39 -5 -3 -11 3 -14 14 -4 17 -9 19 -32 10
-29 -11 -60 3 -49 22 3 5 -1 17 -10 27 -15 16 -14 17 13 13 23 -3 33 2 46 22
10 14 20 24 24 22 3 -2 7 9 8 26 2 23 -1 29 -15 26 -9 -2 -16 -9 -15 -15 1 -6
-6 -9 -17 -6 -11 3 -17 9 -14 14 3 5 0 9 -5 9 -6 0 -11 -7 -11 -15 0 -13 -4
-14 -21 -4 -15 8 -24 8 -32 0 -13 -13 -47 -15 -47 -2 0 5 10 18 23 28 13 10
22 24 20 30 -3 7 5 18 16 25 14 8 21 23 21 42 0 26 -1 28 -13 13 -8 -12 -22
-16 -42 -14 -46 6 -64 17 -111 64 -24 23 -53 43 -64 43 -23 0 -24 10 -6 60
l13 35 119 6 c65 3 343 6 616 5 l497 -1 22 -24z m-572 -164 c11 -14 6 -27 -10
-27 -5 0 -13 9 -19 20 -8 16 -8 20 3 20 8 0 20 -6 26 -13z m-185 -38 c-3 -5
-10 -7 -15 -3 -5 3 -7 10 -3 15 3 5 10 7 15 3 5 -3 7 -10 3 -15z m337 -12
c-13 -13 -26 -3 -16 12 3 6 11 8 17 5 6 -4 6 -10 -1 -17z m-361 -35 c0 -14
-13 -9 -42 16 -28 24 -21 33 12 14 16 -9 30 -23 30 -30z m-1340 8 c-24 -15
-36 -11 -14 4 10 8 21 12 24 10 2 -3 -2 -9 -10 -14z m-40 -22 c0 -6 -6 -5 -15
2 -8 7 -15 14 -15 16 0 2 7 1 15 -2 8 -4 15 -11 15 -16z m79 -3 c-9 -9 -23
-13 -32 -9 -28 10 -19 24 15 24 29 0 31 -2 17 -15z m107 -18 c9 15 16 16 50 5
21 -6 49 -14 62 -17 12 -4 22 -11 22 -16 0 -5 5 -9 12 -9 6 0 22 -9 34 -21 12
-11 35 -21 52 -21 17 -1 33 -7 36 -15 3 -7 19 -13 35 -13 23 0 34 -7 44 -27 8
-16 12 -34 10 -40 -3 -7 0 -13 5 -13 6 0 17 -6 24 -13 7 -7 39 -23 71 -36 41
-17 57 -29 57 -42 0 -16 -6 -18 -42 -15 -25 2 -46 -1 -50 -8 -5 -7 -8 -4 -8 8
0 18 -1 18 -20 1 -15 -14 -17 -21 -9 -32 8 -9 15 -10 24 -3 8 7 15 3 23 -14 8
-18 8 -25 -1 -29 -26 -10 -95 1 -137 22 -63 30 -97 51 -85 51 6 0 3 5 -5 10
-8 5 -15 13 -15 17 0 4 -6 22 -14 40 -9 21 -18 30 -28 26 -8 -3 -11 -9 -6 -12
12 -9 14 -31 2 -31 -6 0 -18 -8 -27 -17 -16 -16 -17 -15 -20 0 -2 10 -8 15
-13 12 -5 -4 -9 -2 -9 3 0 5 -11 7 -24 5 -32 -6 -42 -48 -12 -51 11 0 26 4 33
10 10 8 12 7 8 -4 -4 -11 2 -18 21 -22 24 -6 25 -9 11 -24 -9 -11 -12 -24 -7
-37 12 -31 1 -37 -30 -19 -28 17 -28 17 -7 34 16 13 17 19 7 25 -9 5 -11 4 -6
-3 4 -7 1 -12 -8 -12 -8 0 -20 10 -27 21 -9 17 -13 19 -20 8 -5 -8 -4 -18 1
-23 6 -6 10 -14 10 -18 0 -13 -28 -9 -37 5 -8 13 -63 42 -75 39 -4 -1 -5 5 -2
13 4 8 1 15 -6 15 -6 0 -9 4 -6 9 4 5 -3 7 -14 4 -29 -8 -32 -17 -14 -53 15
-28 15 -34 1 -47 -10 -10 -17 -11 -21 -4 -4 6 0 11 9 11 12 0 15 5 9 23 -9 28
-39 68 -48 62 -3 -3 -4 -2 -2 1 2 3 7 5 10 5 4 -1 18 11 31 25 14 15 25 22 25
17 0 -8 13 -17 63 -41 4 -2 7 5 8 15 0 10 3 13 6 6 3 -10 10 -10 25 -2 19 10
19 11 1 24 -10 8 -26 15 -35 15 -22 0 -29 12 -18 30 7 12 12 12 28 -3 10 -9
24 -17 31 -17 6 0 14 -7 17 -15 6 -14 8 -13 19 2 15 20 10 37 -7 27 -7 -4 -8
-2 -4 4 4 8 -3 16 -18 22 -14 5 -26 16 -26 24 0 21 46 13 74 -13 24 -23 50
-28 43 -8 -2 6 -9 11 -15 10 -6 -2 -9 6 -7 16 3 15 -1 19 -15 16 -20 -4 -37
25 -20 35 6 4 -5 11 -24 17 -31 10 -36 8 -55 -15 -12 -15 -21 -21 -21 -16 0 6
-11 22 -25 36 l-24 24 28 -4 c38 -5 45 10 21 41 -19 24 -19 26 -3 30 10 2 27
-6 38 -19 19 -22 21 -22 31 -7z m1544 18 c29 -17 41 -19 38 -6 -3 9 2 11 25
11 6 0 4 -5 -5 -11 -10 -5 -18 -17 -18 -24 0 -8 -5 -15 -11 -15 -5 0 -8 -3 -6
-8 3 -4 -8 -7 -24 -7 -32 -1 -36 6 -14 25 21 17 19 30 -5 30 -14 0 -25 -11
-34 -31 -7 -18 -15 -26 -18 -19 -3 10 -9 10 -27 1 -12 -7 -30 -10 -39 -8 -12
3 -11 5 6 6 17 1 22 7 22 30 0 16 6 32 13 34 24 10 72 6 97 -8z m-2066 -86
c-3 -5 -11 -9 -17 -8 -8 0 -8 2 1 6 10 4 10 8 0 21 -12 15 -11 16 4 3 10 -7
15 -17 12 -22z m2446 27 c0 -3 -4 -8 -10 -11 -5 -3 -10 -1 -10 4 0 6 5 11 10
11 6 0 10 -2 10 -4z m70 -21 c0 -8 -2 -15 -4 -15 -2 0 -6 7 -10 15 -3 8 -1 15
4 15 6 0 10 -7 10 -15z m-50 1 c0 -2 -7 -7 -16 -10 -8 -3 -12 -2 -9 4 6 10 25
14 25 6z m-538 -41 c0 -5 -5 -11 -11 -13 -6 -2 -11 4 -11 13 0 9 5 15 11 13 6
-2 11 -8 11 -13z m-1505 -21 c-3 -3 -12 -4 -19 -1 -8 3 -5 6 6 6 11 1 17 -2
13 -5z m1963 2 c0 -3 -4 -8 -10 -11 -5 -3 -10 -1 -10 4 0 6 5 11 10 11 6 0 10
-2 10 -4z m-2399 -23 c13 -16 12 -17 -3 -4 -10 7 -18 15 -18 17 0 8 8 3 21
-13z m202 -3 c3 -11 1 -18 -4 -14 -5 3 -9 12 -9 20 0 20 7 17 13 -6z m252 -4
c0 -23 -1 -24 -18 -8 -18 16 -18 17 0 23 10 4 18 8 18 8 0 1 0 -10 0 -23z
m-281 -22 c3 -8 13 -11 23 -8 15 5 16 4 3 -5 -12 -9 -11 -11 8 -11 14 0 21 -4
17 -11 -4 -6 -14 -8 -23 -4 -8 3 -19 0 -23 -7 -7 -10 -11 -10 -21 1 -8 9 -9
11 -1 7 6 -3 14 -2 18 4 3 6 -2 14 -12 18 -10 4 -19 12 -20 18 -3 15 25 13 31
-2z m153 -10 c-9 -9 -28 6 -21 18 4 6 10 6 17 -1 6 -6 8 -13 4 -17z m78 -4
c12 -23 13 -30 2 -30 -7 0 -18 14 -24 30 -6 17 -7 30 -2 30 4 0 15 -13 24 -30z
m835 -36 c0 -32 76 -47 93 -18 5 10 21 12 55 8 26 -4 55 -7 65 -7 9 -1 17 -5
17 -10 0 -4 5 -5 10 -2 6 3 10 -1 10 -9 0 -9 7 -16 15 -16 8 0 15 -6 16 -12 0
-10 2 -10 6 0 2 6 14 12 25 12 33 0 14 -25 -21 -28 -19 -2 -43 -14 -56 -28
-13 -14 -26 -21 -29 -16 -8 13 -56 21 -56 10 0 -5 -5 -6 -10 -3 -15 9 -51 -5
-44 -17 4 -7 2 -8 -5 -4 -6 4 -9 16 -6 27 4 10 2 19 -4 19 -6 0 -8 6 -5 13 3
8 -13 19 -43 30 -53 19 -67 21 -59 9 2 -4 -7 -8 -22 -7 -35 0 -42 32 -12 55
25 19 60 15 60 -6z m-927 -55 c4 1 7 -1 7 -4 0 -3 0 -9 0 -14 0 -6 -9 -9 -19
-8 -11 0 -17 5 -14 10 3 5 0 13 -7 17 -10 6 -10 11 1 23 12 13 15 13 19 -5 3
-10 8 -19 13 -19z m725 -47 c15 -10 39 -24 54 -31 15 -8 25 -18 21 -24 -3 -5
-9 -4 -13 3 -4 7 -12 10 -16 7 -14 -8 -56 12 -49 23 3 5 0 7 -8 4 -9 -3 -16 3
-20 15 -6 26 -2 26 31 3z m-313 -13 c-5 -6 -55 0 -55 7 0 3 13 3 29 2 16 -1
28 -5 26 -9z m1520 2 c3 -5 1 -12 -4 -15 -5 -4 -12 0 -14 6 -3 8 -6 6 -6 -4
-1 -10 -5 -18 -11 -18 -12 0 -9 22 5 32 14 10 23 10 30 -1z m-1885 -18 c7 7
10 7 7 1 -3 -6 1 -20 9 -32 13 -19 18 -20 37 -10 20 10 21 10 8 -5 -7 -10 -10
-17 -6 -17 5 0 6 -3 3 -6 -3 -3 -28 11 -55 31 -58 45 -64 51 -37 37 15 -8 24
-8 34 1z m360 -18 c0 -23 -16 -26 -34 -6 -13 15 -14 20 -4 23 19 7 38 -2 38
-17z m89 -8 c8 -11 6 -13 -11 -12 -12 1 -24 7 -26 13 -5 16 23 15 37 -1z m285
-15 c3 -5 -1 -9 -9 -9 -8 0 -15 4 -15 9 0 4 4 8 9 8 6 0 12 -4 15 -8z m-304
-36 c0 -2 -9 -6 -20 -9 -11 -3 -20 -1 -20 4 0 5 9 9 20 9 11 0 20 -2 20 -4z
m-445 -46 c3 -5 1 -10 -4 -10 -6 0 -11 5 -11 10 0 6 2 10 4 10 3 0 8 -4 11
-10z m970 -10 c5 -8 12 -7 23 2 12 10 14 10 8 1 -4 -7 -2 -13 3 -13 6 0 11 5
11 10 0 6 7 10 15 10 8 0 15 -4 15 -9 0 -10 -24 -21 -49 -21 -19 0 -63 29 -44
30 6 0 15 -5 18 -10z m695 -27 c0 -8 12 -13 28 -13 32 0 41 -30 14 -52 -13
-11 -14 -11 -7 1 5 10 4 12 -3 7 -7 -4 -12 -14 -12 -22 0 -13 -15 -18 -48 -17
-9 1 -10 -2 -2 -12 9 -11 5 -15 -22 -20 -76 -14 -93 -11 -96 13 -3 20 -7 22
-35 17 -26 -6 -30 -5 -19 6 19 21 15 24 -32 24 -24 0 -48 3 -52 8 -15 15 12
25 51 18 29 -5 51 -2 80 11 22 10 53 18 68 18 16 0 26 4 23 9 -7 11 11 19 41
17 13 -1 23 -7 23 -13z m258 -11 c-10 -2 -18 -8 -18 -13 0 -6 -5 -7 -10 -4
-17 11 9 35 28 27 16 -6 16 -7 0 -10z m-903 -2 c3 -5 1 -10 -4 -10 -6 0 -11 5
-11 10 0 6 2 10 4 10 3 0 8 -4 11 -10z m789 -12 c-3 -4 -11 -5 -19 -1 -21 7
-19 12 4 10 11 0 18 -5 15 -9z m1 -28 c-3 -5 -12 -10 -18 -10 -7 0 -6 4 3 10
19 12 23 12 15 0z m-29 -46 c-11 -8 -29 -14 -40 -13 -14 1 -10 4 12 10 17 5
32 15 32 21 0 6 3 8 7 4 5 -4 -1 -14 -11 -22z m-56 10 c0 -8 -19 -13 -24 -6
-3 5 1 9 9 9 8 0 15 -2 15 -3z m150 -23 c0 -6 -4 -13 -10 -16 -5 -3 -10 1 -10
9 0 9 5 16 10 16 6 0 10 -4 10 -9z m-675 -21 c3 -6 -1 -7 -9 -4 -18 7 -21 14
-7 14 6 0 13 -4 16 -10z m642 -6 c-3 -3 -12 -4 -19 -1 -8 3 -5 6 6 6 11 1 17
-2 13 -5z m-777 -8 c0 -7 -40 -14 -44 -7 -3 4 6 8 20 9 13 1 24 0 24 -2z m665
-14 c3 -8 1 -20 -5 -27 -8 -9 -8 -15 0 -20 5 -3 10 -11 10 -16 0 -6 -4 -8 -9
-5 -4 3 -26 -3 -47 -13 -38 -19 -82 -18 -52 0 7 5 10 9 6 9 -15 0 32 40 48 40
9 0 14 8 13 18 -2 25 0 29 16 29 8 0 17 -7 20 -15z m60 8 c4 -6 1 -9 -7 -8 -7
2 -12 -3 -10 -9 1 -7 -5 -13 -13 -13 -9 0 -12 -6 -9 -17 5 -15 4 -16 -5 -3 -7
11 -5 20 11 37 25 26 25 26 33 13z m-463 -30 c-2 -8 3 -10 13 -7 9 4 15 1 15
-7 0 -12 -7 -12 -36 -3 -30 9 -33 12 -18 18 17 7 16 8 -3 8 -13 1 -23 5 -23
10 0 5 12 6 28 2 15 -5 26 -14 24 -21z m214 -15 c-3 -8 -1 -15 4 -15 6 0 10 5
10 12 0 6 3 9 6 5 4 -3 4 -13 1 -21 -5 -13 -10 -13 -37 0 -32 17 -32 34 2 34
14 0 18 -5 14 -15z m-191 -65 c4 -13 15 -20 31 -20 15 0 23 4 19 11 -4 6 -14
8 -22 5 -8 -3 -12 -2 -8 3 3 5 -1 12 -7 14 -8 4 -9 6 -2 6 7 1 22 -8 35 -18
22 -18 22 -20 6 -26 -27 -11 -64 3 -70 25 -7 26 10 26 18 0z m245 0 c-6 -11
-15 -18 -21 -15 -15 10 -11 23 9 28 9 3 18 5 20 6 1 0 -2 -8 -8 -19z m-328 3
c-10 -4 -10 -8 0 -21 12 -15 11 -16 -4 -3 -19 14 -15 32 5 30 8 0 8 -2 -1 -6z
m48 -3 c8 -5 11 -10 5 -10 -5 0 -17 5 -25 10 -8 5 -10 10 -5 10 6 0 17 -5 25
-10z m215 -29 c9 -15 -51 -52 -71 -44 -11 4 -15 3 -11 -4 13 -21 -22 -22 -45
-2 -17 15 -18 19 -6 15 10 -3 20 0 24 6 4 6 21 8 42 5 32 -6 33 -5 16 8 -11 8
-14 15 -8 15 5 0 15 -5 21 -11 6 -6 17 -8 24 -3 9 5 8 9 -7 15 -16 6 -16 8 -2
8 9 1 19 -3 23 -8z m-142 -58 c16 -8 27 -16 25 -18 -1 -2 -24 -5 -50 -7 -47
-5 -48 -4 -48 24 0 26 3 29 23 22 12 -3 35 -13 50 -21z m-115 -3 c30 -14 48
-38 18 -27 -7 3 -22 0 -32 -7 -11 -7 -37 -16 -59 -19 -29 -5 -34 -4 -18 3 21
9 24 24 10 47 -5 7 -1 9 13 6 12 -3 20 0 20 7 0 6 3 10 8 8 4 -3 22 -11 40
-18z m271 8 c-4 -33 2 -35 79 -31 56 3 88 0 116 -12 l38 -16 -38 -20 c-21 -10
-44 -19 -51 -19 -7 0 -17 -9 -23 -20 -12 -23 -32 -17 -28 8 2 13 -9 19 -47 25
-45 8 -52 13 -61 41 -7 22 -6 36 1 44 13 15 16 15 14 0z m-29 -48 c0 -6 -7
-13 -15 -16 -20 -8 -48 3 -40 16 8 13 55 13 55 0z"/>
<path d="M1896 5743 c-6 -14 -5 -15 5 -6 7 7 10 15 7 18 -3 3 -9 -2 -12 -12z"/>
<path d="M2497 3556 c-4 -60 -7 -340 -7 -623 l0 -513 260 0 c201 0 260 3 260
13 0 6 16 32 35 56 19 24 35 47 35 52 0 4 25 44 55 88 30 44 55 84 55 88 0 5
11 20 24 35 14 14 22 29 19 32 -4 3 -1 6 6 6 11 0 28 32 29 55 1 6 11 13 24
17 13 3 -66 6 -174 7 l-198 1 0 183 c0 257 -11 517 -22 511 -10 -6 -77 4 -241
38 -109 22 -129 26 -139 27 -3 1 -8 9 -10 19 -2 9 -7 -32 -11 -92z"/>
<path d="M5055 2843 c9 -89 42 -225 66 -279 11 -22 19 -45 19 -51 0 -6 17 -30
38 -52 l37 -42 323 3 323 3 -80 133 c-44 73 -106 172 -138 220 l-59 87 -266 3
-266 2 3 -27z"/>
<path d="M6290 4781 c0 -7 -5 -9 -12 -5 -7 5 -8 3 -3 -5 5 -9 10 -10 18 -2 6
6 8 14 4 18 -4 3 -7 1 -7 -6z"/>
<path d="M6236 4733 c-6 -14 -5 -15 5 -6 7 7 10 15 7 18 -3 3 -9 -2 -12 -12z"/>
<path d="M6070 4683 c0 -5 7 -18 15 -29 15 -18 15 -18 13 5 -3 23 -28 44 -28
24z"/>
<path d="M6254 4678 c-5 -7 -9 -32 -10 -56 l-1 -43 22 21 c14 13 21 30 19 47
-3 33 -19 49 -30 31z"/>
<path d="M6245 4230 c-3 -5 1 -10 10 -10 9 0 13 5 10 10 -3 6 -8 10 -10 10 -2
0 -7 -4 -10 -10z"/>
<path d="M6325 4180 c3 -5 10 -10 16 -10 5 0 9 5 9 10 0 6 -7 10 -16 10 -8 0
-12 -4 -9 -10z"/>
<path d="M3800 2261 c0 -20 13 -41 25 -41 12 0 25 21 25 41 0 5 -11 9 -25 9
-14 0 -25 -4 -25 -9z"/>
<path d="M4836 2251 c-4 -7 -5 -15 -2 -18 9 -9 19 4 14 18 -4 11 -6 11 -12 0z"/>
<path d="M3645 2239 c-4 -6 -4 -13 -1 -16 3 -4 6 -1 6 6 0 7 5 9 12 5 7 -4 8
-3 4 4 -9 15 -13 15 -21 1z"/>
<path d="M3880 2206 c0 -2 7 -7 16 -10 8 -3 12 -2 9 4 -6 10 -25 14 -25 6z"/>
<path d="M4680 2079 c0 -5 5 -7 10 -4 6 3 10 8 10 11 0 2 -4 4 -10 4 -5 0 -10
-5 -10 -11z"/>
<path d="M3930 2055 c0 -14 8 -29 20 -35 38 -21 55 13 22 43 -26 24 -42 21
-42 -8z"/>
<path d="M4650 2070 c0 -5 5 -10 10 -10 6 0 10 5 10 10 0 6 -4 10 -10 10 -5 0
-10 -4 -10 -10z"/>
<path d="M3865 2030 c-3 -6 1 -13 10 -16 19 -8 30 0 20 15 -8 14 -22 14 -30 1z"/>
<path d="M4566 1911 c-4 -5 -2 -12 3 -15 5 -4 12 -2 15 3 4 5 2 12 -3 15 -5 4
-12 2 -15 -3z"/>
<path d="M4485 1820 c-14 -15 -15 -20 -4 -20 25 0 45 18 33 30 -7 7 -16 5 -29
-10z"/>
<path d="M4690 1789 c0 -11 4 -18 10 -14 5 3 7 12 3 20 -7 21 -13 19 -13 -6z"/>
<path d="M4476 1724 c-4 -9 -4 -19 -1 -22 2 -3 7 3 11 12 4 9 4 19 1 22 -2 3
-7 -3 -11 -12z"/>
<path d="M4424 1681 c4 -5 0 -12 -6 -14 -8 -4 -9 -6 -2 -6 6 -1 17 6 24 14 10
12 9 15 -4 15 -10 0 -15 -4 -12 -9z"/>
<path d="M4375 1620 c-7 -12 2 -30 16 -30 5 0 9 9 9 20 0 21 -15 27 -25 10z"/>
<path d="M4480 1589 c0 -5 5 -7 10 -4 6 3 10 8 10 11 0 2 -4 4 -10 4 -5 0 -10
-5 -10 -11z"/>
<path d="M4146 1581 c-3 -5 1 -11 9 -15 15 -6 29 7 18 18 -9 9 -21 8 -27 -3z"/>
<path d="M2845 2000 c-3 -5 -1 -10 4 -10 6 0 11 5 11 10 0 6 -2 10 -4 10 -3 0
-8 -4 -11 -10z"/>
<path d="M2948 1973 c-20 -5 -24 -18 -9 -28 6 -3 15 4 21 15 6 11 9 19 8 19
-2 -1 -11 -3 -20 -6z"/>
<path d="M3000 1962 c0 -5 7 -16 16 -23 14 -12 16 -11 13 5 -4 20 -29 35 -29
18z"/>
<path d="M3009 1877 c13 -13 50 -16 57 -5 4 7 2 8 -4 4 -7 -4 -12 -3 -12 2 0
6 -11 9 -24 8 -14 0 -22 -4 -17 -9z"/>
<path d="M3100 1789 c0 -5 -4 -7 -10 -4 -5 3 -10 4 -10 2 0 -3 16 -14 35 -26
25 -15 36 -17 41 -8 4 7 4 9 -1 5 -4 -4 -14 0 -21 10 -9 13 -9 19 -1 24 7 5 3
8 -10 8 -13 0 -23 -5 -23 -11z"/>
<path d="M3245 1740 c-7 -11 22 -26 32 -16 4 3 -1 6 -11 6 -9 0 -14 5 -11 10
3 6 4 10 1 10 -3 0 -8 -5 -11 -10z"/>
<path d="M3188 1708 c5 -5 16 -8 23 -6 8 3 3 7 -10 11 -17 4 -21 3 -13 -5z"/>
<path d="M4440 1959 c0 -5 5 -7 10 -4 6 3 10 8 10 11 0 2 -4 4 -10 4 -5 0 -10
-5 -10 -11z"/>
<path d="M3065 1610 c3 -5 8 -10 11 -10 2 0 4 5 4 10 0 6 -5 10 -11 10 -5 0
-7 -4 -4 -10z"/>
<path d="M4305 1450 c-28 -7 -28 -8 -5 -9 14 0 32 4 40 9 17 11 8 11 -35 0z"/>
<path d="M4326 1427 c-15 -11 -16 -15 -4 -25 11 -9 19 -8 36 4 12 8 22 19 22
25 0 13 -33 11 -54 -4z"/>
<path d="M3953 1124 c4 -4 -3 -14 -15 -21 -24 -13 -9 -16 30 -5 l22 7 -22 14
c-13 7 -19 10 -15 5z"/>
<path d="M4388 1063 c6 -2 18 -2 25 0 6 3 1 5 -13 5 -14 0 -19 -2 -12 -5z"/>
<path d="M5680 7086 c0 -3 9 -10 20 -16 11 -6 20 -8 20 -6 0 3 -9 10 -20 16
-11 6 -20 8 -20 6z"/>
<path d="M1310 3031 c0 -6 4 -13 10 -16 6 -3 7 1 4 9 -7 18 -14 21 -14 7z"/>
<path d="M1307 2955 c8 -39 10 -41 15 -11 3 14 2 23 -3 21 -4 -3 -10 1 -13 7
-3 7 -3 0 1 -17z"/>
<path d="M1522 2470 c0 -14 2 -19 5 -12 2 6 2 18 0 25 -3 6 -5 1 -5 -13z"/>
<path d="M2576 1573 c-13 -13 -5 -23 17 -23 18 0 19 -2 7 -11 -12 -9 -12 -10
-1 -7 8 3 16 9 18 14 4 11 -32 35 -41 27z"/>
<path d="M2626 1543 c-11 -11 -6 -23 9 -23 8 0 15 4 15 9 0 13 -16 22 -24 14z"/>
<path d="M3668 1198 c5 -5 16 -8 23 -6 8 3 3 7 -10 11 -17 4 -21 3 -13 -5z"/>
<path d="M3648 1103 c12 -2 20 -9 17 -14 -3 -5 1 -6 10 -2 13 5 14 7 3 14 -7
5 -22 8 -33 7 -17 -1 -17 -1 3 -5z"/>
<path d="M5149 1050 c-13 -10 -20 -19 -16 -20 4 0 17 9 29 20 28 26 17 26 -13
0z"/>
<path d="M4980 988 c0 -10 19 -9 45 2 16 7 14 8 -12 7 -18 -1 -33 -5 -33 -9z"/>
</g>
</svg>
